{
  "accessors": [
    {
      "bufferView": 2,
      "componentType": 5126,
      "count": 65532,
      "max": [
        1.7270640134811401,
        4.2578768730163574,
        1.8760429620742798
      ],
      "min": [
        -1.15733802318573,
        -4.5204958915710449,
        -2.1350600719451904
      ],
      "type": "VEC3"
    },
    {
      "bufferView": 2,
      "byteOffset": 786384,
      "componentType": 5126,
      "count": 65532,
      "max": [
        0.99997782707214355,
        0.99995189905166626,
        0.99995583295822144
      ],
      "min": [
        -0.9999963641166687,
        -0.99999070167541504,
        -0.99998176097869873
      ],
      "type": "VEC3"
    },
    {
      "bufferView": 1,
      "componentType": 5126,
      "count": 65532,
      "max": [
        0.99984699487686157,
        0.94631201028823853
      ],
      "min": [
        0,
        0.0094050001353025436
      ],
      "type": "VEC2"
    },
    {
      "bufferView": 0,
      "componentType": 5125,
      "count": 344739,
      "max": [
        65531
      ],
      "min": [
        0
      ],
      "type": "SCALAR"
    },
    {
      "bufferView": 2,
      "byteOffset": 1572768,
      "componentType": 5126,
      "count": 65532,
      "max": [
        1.7657469511032104,
        3.8867518901824951,
        0.84285098314285278
      ],
      "min": [
        -1.3276009559631348,
        -2.3358440399169922,
        -2.1350390911102295
      ],
      "type": "VEC3"
    },
    {
      "bufferView": 2,
      "byteOffset": 2359152,
      "componentType": 5126,
      "count": 65532,
      "max": [
        0.9999961256980896,
        0.99999988079071045,
        0.99999767541885376
      ],
      "min": [
        -0.99998503923416138,
        -0.99996119737625122,
        -0.99998408555984497
      ],
      "type": "VEC3"
    },
    {
      "bufferView": 1,
      "byteOffset": 524256,
      "componentType": 5126,
      "count": 65532,
      "max": [
        0.98082298040390015,
        0.95261198282241821
      ],
      "min": [
        0.064361996948719025,
        0.11010300368070602
      ],
      "type": "VEC2"
    },
    {
      "bufferView": 0,
      "byteOffset": 1378956,
      "componentType": 5125,
      "count": 341289,
      "max": [
        65531
      ],
      "min": [
        0
      ],
      "type": "SCALAR"
    },
    {
      "bufferView": 2,
      "byteOffset": 3145536,
      "componentType": 5126,
      "count": 65532,
      "max": [
        1.712913990020752,
        3.4835760593414307,
        0.81156498193740845
      ],
      "min": [
        -1.8162909746170044,
        -0.29069700837135315,
        -1.9069390296936035
      ],
      "type": "VEC3"
    },
    {
      "bufferView": 2,
      "byteOffset": 3931920,
      "componentType": 5126,
      "count": 65532,
      "max": [
        0.99994379281997681,
        0.99963152408599854,
        0.99999427795410156
      ],
      "min": [
        -0.99999594688415527,
        -0.98923832178115845,
        -0.99999052286148071
      ],
      "type": "VEC3"
    },
    {
      "bufferView": 1,
      "byteOffset": 1048512,
      "componentType": 5126,
      "count": 65532,
      "max": [
        0.98581498861312866,
        0.94955700635910034
      ],
      "min": [
        0.00036999999429099262,
        0.091055996716022491
      ],
      "type": "VEC2"
    },
    {
      "bufferView": 0,
      "byteOffset": 2744112,
      "componentType": 5125,
      "count": 331290,
      "max": [
        65531
      ],
      "min": [
        0
      ],
      "type": "SCALAR"
    },
    {
      "bufferView": 2,
      "byteOffset": 4718304,
      "componentType": 5126,
      "count": 65532,
      "max": [
        1.7655500173568726,
        2.323077917098999,
        0.81014597415924072
      ],
      "min": [
        -1.8113349676132202,
        -3.0432798862457275,
        -2.1435658931732178
      ],
      "type": "VEC3"
    },
    {
      "bufferView": 2,
      "byteOffset": 5504688,
      "componentType": 5126,
      "count": 65532,
      "max": [
        0.99998807907104492,
        0.98079186677932739,
        0.99998700618743896
      ],
      "min": [
        -0.99999594688415527,
        -0.99987465143203735,
        -0.99998408555984497
      ],
      "type": "VEC3"
    },
    {
      "bufferView": 1,
      "byteOffset": 1572768,
      "componentType": 5126,
      "count": 65532,
      "max": [
        1,
        0.8826109766960144
      ],
      "min": [
        0.00035600000410340726,
        0.070657998323440552
      ],
      "type": "VEC2"
    },
    {
      "bufferView": 0,
      "byteOffset": 4069272,
      "componentType": 5125,
      "count": 316197,
      "max": [
        65531
      ],
      "min": [
        0
      ],
      "type": "SCALAR"
    },
    {
      "bufferView": 2,
      "byteOffset": 6291072,
      "componentType": 5126,
      "count": 65532,
      "max": [
        1.7098000049591064,
        0.56825602054595947,
        1.7312239408493042
      ],
      "min": [
        -1.6436829566955566,
        -3.9641709327697754,
        -2.1418120861053467
      ],
      "type": "VEC3"
    },
    {
      "bufferView": 2,
      "byteOffset": 7077456,
      "componentType": 5126,
      "count": 65532,
      "max": [
        0.99999332427978516,
        0.99939566850662231,
        0.99999767541885376
      ],
      "min": [
        -0.99999874830245972,
        -0.99989908933639526,
        -0.9999622106552124
      ],
      "type": "VEC3"
    },
    {
      "bufferView": 1,
      "byteOffset": 2097024,
      "componentType": 5126,
      "count": 65532,
      "max": [
        1,
        0.94852399826049805
      ],
      "min": [
        0,
        0.055330000817775726
      ],
      "type": "VEC2"
    },
    {
      "bufferView": 0,
      "byteOffset": 5334060,
      "componentType": 5125,
      "count": 320907,
      "max": [
        65531
      ],
      "min": [
        0
      ],
      "type": "SCALAR"
    },
    {
      "bufferView": 2,
      "byteOffset": 7863840,
      "componentType": 5126,
      "count": 65532,
      "max": [
        1.670536994934082,
        -0.36800900101661682,
        1.7163640260696411
      ],
      "min": [
        -1.4207479953765869,
        -4.1508188247680664,
        -2.0903270244598389
      ],
      "type": "VEC3"
    },
    {
      "bufferView": 2,
      "byteOffset": 8650224,
      "componentType": 5126,
      "count": 65532,
      "max": [
        0.9999961256980896,
        0.99609380960464478,
        0.99999547004699707
      ],
      "min": [
        -0.9999997615814209,
        -0.99999439716339111,
        -0.9999769926071167
      ],
      "type": "VEC3"
    },
    {
      "bufferView": 1,
      "byteOffset": 2621280,
      "componentType": 5126,
      "count": 65532,
      "max": [
        0.99165600538253784,
        0.95061701536178589
      ],
      "min": [
        0.0002390000008745119,
        0.035328999161720276
      ],
      "type": "VEC2"
    },
    {
      "bufferView": 0,
      "byteOffset": 6617688,
      "componentType": 5125,
      "count": 324378,
      "max": [
        65531
      ],
      "min": [
        0
      ],
      "type": "SCALAR"
    },
    {
      "bufferView": 2,
      "byteOffset": 9436608,
      "componentType": 5126,
      "count": 65532,
      "max": [
        1.6854840517044067,
        -0.8630480170249939,
        1.710690975189209
      ],
      "min": [
        -1.4100580215454102,
        -4.4421682357788086,
        -1.6090450286865234
      ],
      "type": "VEC3"
    },
    {
      "bufferView": 2,
      "byteOffset": 10222992,
      "componentType": 5126,
      "count": 65532,
      "max": [
        0.99999147653579712,
        0.99986886978149414,
        0.99994951486587524
      ],
      "min": [
        -0.9999924898147583,
        -0.99988937377929688,
        -0.99999195337295532
      ],
      "type": "VEC3"
    },
    {
      "bufferView": 1,
      "byteOffset": 3145536,
      "componentType": 5126,
      "count": 65532,
      "max": [
        0.98057800531387329,
        0.95532500743865967
      ],
      "min": [
        0.0038530000019818544,
        0.0030229999683797359
      ],
      "type": "VEC2"
    },
    {
      "bufferView": 0,
      "byteOffset": 7915200,
      "componentType": 5125,
      "count": 321795,
      "max": [
        65531
      ],
      "min": [
        0
      ],
      "type": "SCALAR"
    },
    {
      "bufferView": 2,
      "byteOffset": 11009376,
      "componentType": 5126,
      "count": 65532,
      "max": [
        1.6679240465164185,
        -1.4127210378646851,
        1.8788260221481323
      ],
      "min": [
        -1.4112240076065063,
        -4.5355329513549805,
        -1.249413013458252
      ],
      "type": "VEC3"
    },
    {
      "bufferView": 2,
      "byteOffset": 11795760,
      "componentType": 5126,
      "count": 65532,
      "max": [
        0.99999797344207764,
        0.9999314546585083,
        0.99999827146530151
      ],
      "min": [
        -0.99999380111694336,
        -0.99995720386505127,
        -0.99999445676803589
      ],
      "type": "VEC3"
    },
    {
      "bufferView": 1,
      "byteOffset": 3669792,
      "componentType": 5126,
      "count": 65532,
      "max": [
        0.99636101722717285,
        0.95699900388717651
      ],
      "min": [
        0.0033460000995546579,
        0.0064030000939965248
      ],
      "type": "VEC2"
    },
    {
      "bufferView": 0,
      "byteOffset": 9202380,
      "componentType": 5125,
      "count": 316806,
      "max": [
        65531
      ],
      "min": [
        0
      ],
      "type": "SCALAR"
    },
    {
      "bufferView": 2,
      "byteOffset": 12582144,
      "componentType": 5126,
      "count": 65532,
      "max": [
        1.6424499750137329,
        -2.2086861133575439,
        1.9415969848632812
      ],
      "min": [
        -1.4087849855422974,
        -4.5526027679443359,
        -1.1867120265960693
      ],
      "type": "VEC3"
    },
    {
      "bufferView": 2,
      "byteOffset": 13368528,
      "componentType": 5126,
      "count": 65532,
      "max": [
        0.9999840259552002,
        0.9999314546585083,
        0.99999427795410156
      ],
      "min": [
        -0.9999883770942688,
        -0.99999493360519409,
        -0.99999445676803589
      ],
      "type": "VEC3"
    },
    {
      "bufferView": 1,
      "byteOffset": 4194048,
      "componentType": 5126,
      "count": 65532,
      "max": [
        0.99482101202011108,
        0.95524001121520996
      ],
      "min": [
        0.043939001858234406,
        0.00014299999747890979
      ],
      "type": "VEC2"
    },
    {
      "bufferView": 0,
      "byteOffset": 10469604,
      "componentType": 5125,
      "count": 284358,
      "max": [
        65531
      ],
      "min": [
        0
      ],
      "type": "SCALAR"
    },
    {
      "bufferView": 2,
      "byteOffset": 14154912,
      "componentType": 5126,
      "count": 22747,
      "max": [
        1.1879639625549316,
        -3.6634891033172607,
        1.9391419887542725
      ],
      "min": [
        -1.1239839792251587,
        -4.6080918312072754,
        -0.95847499370574951
      ],
      "type": "VEC3"
    },
    {
      "bufferView": 2,
      "byteOffset": 14427876,
      "componentType": 5126,
      "count": 22747,
      "max": [
        0.99972808361053467,
        0.9999123215675354,
        0.99996840953826904
      ],
      "min": [
        -0.99913126230239868,
        -0.9999653697013855,
        -0.99993413686752319
      ],
      "type": "VEC3"
    },
    {
      "bufferView": 1,
      "byteOffset": 4718304,
      "componentType": 5126,
      "count": 22747,
      "max": [
        0.97697001695632935,
        0.9537540078163147
      ],
      "min": [
        0.013775999657809734,
        0.0046199997887015343
      ],
      "type": "VEC2"
    },
    {
      "bufferView": 0,
      "byteOffset": 11607036,
      "componentType": 5125,
      "count": 98241,
      "max": [
        22746
      ],
      "min": [
        0
      ],
      "type": "SCALAR"
    }
  ],
  "asset": {
    "extras": {
      "author": "SHARK FIN (https://sketchfab.com/mo7amed85)",
      "license": "CC-BY-4.0 (http://creativecommons.org/licenses/by/4.0/)",
      "source": "https://sketchfab.com/3d-models/free-downloadable-sketchers-shoes-bf982dfc6e494e9da5e716b76ae96df5",
      "title": "FREE DOWNLOADABLE SKETCHERS SHOES"
    },
    "generator": "Sketchfab-7.47.0",
    "version": "2.0"
  },
  "bufferViews": [
    {
      "buffer": 0,
      "byteLength": 12000000,
      "byteOffset": 0,
      "name": "floatBufferViews",
      "target": 34963
    },
    {
      "buffer": 0,
      "byteLength": 4900280,
      "byteOffset": 12000000,
      "byteStride": 8,
      "name": "floatBufferViews",
      "target": 34962
    },
    {
      "buffer": 0,
      "byteLength": 14700840,
      "byteOffset": 16900280,
      "byteStride": 12,
      "name": "floatBufferViews",
      "target": 34962
    }
  ],
  "buffers": [
    {
      "byteLength": 31601120,
      "uri": "scene.bin"
    }
  ],
  "extensionsUsed": [
    "KHR_materials_unlit"
  ],
  "images": [
    {
      "uri": "textures/model_baseColor.jpeg"
    }
  ],
  "materials": [
    {
      "doubleSided": true,
      "emissiveFactor": [
        0,
        0,
        0
      ],
      "extensions": {
        "KHR_materials_unlit": {}
      },
      "name": "model",
      "pbrMetallicRoughness": {
        "baseColorFactor": [
          1,
          1,
          1,
          1
        ],
        "baseColorTexture": {
          "index": 0,
          "texCoord": 0
        },
        "metallicFactor": 0,
        "roughnessFactor": 1
      }
    }
  ],
  "meshes": [
    {
      "primitives": [
        {
          "attributes": {
            "NORMAL": 1,
            "POSITION": 0,
            "TEXCOORD_0": 2
          },
          "indices": 3,
          "material": 0,
          "mode": 4
        }
      ]
    },
    {
      "primitives": [
        {
          "attributes": {
            "NORMAL": 5,
            "POSITION": 4,
            "TEXCOORD_0": 6
          },
          "indices": 7,
          "material": 0,
          "mode": 4
        }
      ]
    },
    {
      "primitives": [
        {
          "attributes": {
            "NORMAL": 9,
            "POSITION": 8,
            "TEXCOORD_0": 10
          },
          "indices": 11,
          "material": 0,
          "mode": 4
        }
      ]
    },
    {
      "primitives": [
        {
          "attributes": {
            "NORMAL": 13,
            "POSITION": 12,
            "TEXCOORD_0": 14
          },
          "indices": 15,
          "material": 0,
          "mode": 4
        }
      ]
    },
    {
      "primitives": [
        {
          "attributes": {
            "NORMAL": 17,
            "POSITION": 16,
            "TEXCOORD_0": 18
          },
          "indices": 19,
          "material": 0,
          "mode": 4
        }
      ]
    },
    {
      "primitives": [
        {
          "attributes": {
            "NORMAL": 21,
            "POSITION": 20,
            "TEXCOORD_0": 22
          },
          "indices": 23,
          "material": 0,
          "mode": 4
        }
      ]
    },
    {
      "primitives": [
        {
          "attributes": {
            "NORMAL": 25,
            "POSITION": 24,
            "TEXCOORD_0": 26
          },
          "indices": 27,
          "material": 0,
          "mode": 4
        }
      ]
    },
    {
      "primitives": [
        {
          "attributes": {
            "NORMAL": 29,
            "POSITION": 28,
            "TEXCOORD_0": 30
          },
          "indices": 31,
          "material": 0,
          "mode": 4
        }
      ]
    },
    {
      "primitives": [
        {
          "attributes": {
            "NORMAL": 33,
            "POSITION": 32,
            "TEXCOORD_0": 34
          },
          "indices": 35,
          "material": 0,
          "mode": 4
        }
      ]
    },
    {
      "primitives": [
        {
          "attributes": {
            "NORMAL": 37,
            "POSITION": 36,
            "TEXCOORD_0": 38
          },
          "indices": 39,
          "material": 0,
          "mode": 4
        }
      ]
    }
  ],
  "nodes": [
    {
      "children": [
        1
      ],
      "name": "RootNode (gltf orientation matrix)",
      "rotation": [
        -0.70710678118654746,
        -0,
        -0,
        0.70710678118654757
      ]
    },
    {
      "children": [
        2
      ],
      "matrix": [
        -0.99728018045425415,
        -0.027456685900688171,
        0.068399012088775635,
        0,
        -0.052464678883552551,
        0.9162524938583374,
        -0.39715084433555603,
        0,
        -0.051766321063041687,
        -0.39965918660163879,
        -0.91520094871520996,
        0,
        -0.064903236925601959,
        -0.05572044849395752,
        -0.26123115420341492,
        1
      ],
      "name": "RootNode (model correction matrix)"
    },
    {
      "children": [
        3,
        4,
        5,
        6,
        7,
        8,
        9,
        10,
        11,
        12
      ],
      "name": "model.obj.cleaner.materialmerger.gles"
    },
    {
      "mesh": 0,
      "name": ""
    },
    {
      "mesh": 1,
      "name": ""
    },
    {
      "mesh": 2,
      "name": ""
    },
    {
      "mesh": 3,
      "name": ""
    },
    {
      "mesh": 4,
      "name": ""
    },
    {
      "mesh": 5,
      "name": ""
    },
    {
      "mesh": 6,
      "name": ""
    },
    {
      "mesh": 7,
      "name": ""
    },
    {
      "mesh": 8,
      "name": ""
    },
    {
      "mesh": 9,
      "name": ""
    }
  ],
  "samplers": [
    {
      "magFilter": 9729,
      "minFilter": 9987,
      "wrapS": 10497,
      "wrapT": 10497
    }
  ],
  "scene": 0,
  "scenes": [
    {
      "name": "OSG_Scene",
      "nodes": [
        0
      ]
    }
  ],
  "textures": [
    {
      "sampler": 0,
      "source": 0
    }
  ]
}

